<svg xmlns="http://www.w3.org/2000/svg" width="20" height="24" viewBox="0 0 20 24"><g><g><path fill="#c1c1c1" d="M20 22.216c0 .985-.807 1.784-1.803 1.784-.422 0-.793-.166-1.1-.406-.008-.004-.015-.01-.023-.015a1.746 1.746 0 0 1-.326-.356l-5.104-6.95a8.57 8.57 0 0 1-3.12.592C3.816 16.865 0 13.089 0 8.432S3.816 0 8.524 0c4.708 0 8.525 3.775 8.525 8.432a8.356 8.356 0 0 1-2.453 5.915l4.83 6.578c.35.325.574.78.574 1.291zM8.524 2.645c-3.231 0-5.85 2.591-5.85 5.787 0 3.196 2.619 5.787 5.85 5.787 3.231 0 5.85-2.59 5.85-5.787 0-3.196-2.619-5.787-5.85-5.787z"/></g></g></svg>